<svg width="40" height="40" viewBox="0 0 40 40" fill="none" xmlns="http://www.w3.org/2000/svg">
<rect width="40" height="40" rx="8" fill="white"/>
<path fill-rule="evenodd" clip-rule="evenodd" d="M11.5629 18.8769C12.1088 17.3009 12.7109 16.3469 13.9842 15.3201C14.1805 15.1618 14.112 15.1665 14.1501 14.8907C14.1733 14.7225 14.2153 14.566 14.2266 14.3825C14.2927 13.3115 13.8531 12.8671 13.7695 12.4889C14.4734 12.5911 14.9877 12.8352 15.4938 13.2561C15.5895 13.3357 15.8092 13.5825 15.8571 13.7084C15.9994 13.6644 16.2638 13.4662 16.396 13.3798L16.8305 13.0916C16.8638 13.0633 16.8589 13.0664 16.8819 13.0402C16.6743 12.6781 16.2421 12.2836 15.9114 12.0573C15.2561 11.6088 13.6762 10.9476 12.972 11.4683C12.6442 11.7107 12.3185 12.2031 12.559 12.8042C12.7202 13.2074 13.078 13.5318 13.0439 14.2599C13.0229 14.7093 12.9121 14.6417 12.678 14.8637C12.058 15.4516 11.4181 16.2797 11.0168 17.052C10.9467 17.1868 10.8025 17.596 10.6917 17.6721C9.94271 17.6721 9.53308 17.9221 9.2467 18.3512C8.92015 18.8405 9.01236 19.5514 9.01236 20.1966C9.01236 20.8437 8.91917 21.5852 9.2446 22.0756C9.68527 22.7398 10.1496 22.6872 10.6796 22.7401C10.9064 23.2763 11.0883 23.6185 11.35 24.072C11.4615 24.2652 11.6294 24.4953 11.7603 24.6635C11.8481 24.7762 11.8996 24.8414 11.9808 24.9439C12.6654 25.8079 13.7504 26.2704 13.7486 27.6343C13.7477 28.383 13.7509 28.7907 14.2564 29.1133C14.6644 29.3737 15.5127 29.2831 16.0547 29.2831C16.5088 29.2831 17.6273 29.3367 17.9992 29.2585C18.3101 29.1931 18.4626 29.051 18.6236 28.8819C18.8244 28.6709 18.8197 28.499 18.8886 28.1821L19.9751 28.1631C20.0596 28.3983 19.9877 28.494 20.158 28.7641C20.2603 28.9262 20.3805 29.0488 20.5587 29.1463C20.9347 29.352 21.5179 29.283 21.9957 29.283L21.9921 28.0755H21.1905L21.1886 26.8002C20.9459 26.8051 20.6065 26.8835 20.3502 26.9152C19.327 27.0415 18.6454 26.9328 17.6514 26.8445V28.0756L14.9974 28.0654C14.9974 27.1886 14.9419 26.7009 14.5739 26.0162C14.182 25.2868 13.8974 25.1969 13.4052 24.7117C12.3966 23.7175 12.0158 22.989 11.5891 21.5838C11.2722 21.5528 10.4928 21.6734 10.3147 21.4782C10.1737 21.3236 10.2355 20.4667 10.2355 20.1966C10.2355 18.641 10.0136 18.8376 11.5629 18.8769Z" fill="#FF0096"/>
<path fill-rule="evenodd" clip-rule="evenodd" d="M24.4168 25.0963L29.6347 25.0962L29.7513 25.1047L29.7511 28.0656L29.6349 28.078L24.4169 28.0758L24.4168 25.0963ZM25.6397 23.8889C25.6397 23.2566 25.5545 22.6052 25.8612 22.1246C26.0831 21.7768 26.52 21.4376 27.1264 21.4493C27.7089 21.4605 28.1552 21.8104 28.3544 22.1608C28.6362 22.6566 28.5541 23.2583 28.5541 23.8879L25.6397 23.8889ZM23.221 29.2574L31 29.2437L30.9975 23.8916L29.803 23.8758C29.803 22.6365 29.8747 22.1239 29.2307 21.2563C28.304 20.0078 26.2198 19.7971 24.9789 21.2765C24.3807 21.9897 24.4168 22.7771 24.4169 23.8862L23.2198 23.9013L23.221 29.2574Z" fill="#FF0096"/>
<path fill-rule="evenodd" clip-rule="evenodd" d="M26.4986 17.45C26.6 17.414 27.4185 16.8975 27.4972 16.8217C27.4346 16.6641 26.8659 15.8481 26.7495 15.7344C26.605 15.8028 26.3853 15.9584 26.239 16.0629C26.0803 16.1762 25.9042 16.2888 25.7531 16.3835L26.4986 17.45Z" fill="#FF0096"/>
<path fill-rule="evenodd" clip-rule="evenodd" d="M25.1799 15.8146C25.344 15.5985 25.8601 15.0543 25.9441 14.8705C25.7783 14.7792 25.5914 14.6008 25.4145 14.4643C25.2938 14.3712 25.0258 14.1135 24.8991 14.0713L24.1738 14.9779C24.3494 15.1338 24.5375 15.2421 24.6951 15.3995L25.1799 15.8146Z" fill="#FF0096"/>
<path fill-rule="evenodd" clip-rule="evenodd" d="M21.5723 12.6081C21.3195 12.5726 20.4405 12.3747 20.2753 12.402L20.106 13.5612L21.3754 13.7808L21.5723 12.6081Z" fill="#FF0096"/>
<path fill-rule="evenodd" clip-rule="evenodd" d="M23.8894 13.4328L22.7086 12.9287C22.6102 13.0763 22.3117 13.8074 22.243 14.0092C22.3019 14.0632 23.2743 14.4938 23.4051 14.5307L23.8894 13.4328Z" fill="#FF0096"/>
<path fill-rule="evenodd" clip-rule="evenodd" d="M17.8532 12.4296C17.816 12.6248 17.9197 13.3788 17.9358 13.6393L19.1858 13.5326L19.1108 12.3291L17.8532 12.4296Z" fill="#FF0096"/>
<path fill-rule="evenodd" clip-rule="evenodd" d="M26.8233 18.2079C26.8276 18.2456 27.1387 19.3687 27.1595 19.4154L28.3233 19.136L27.9697 17.9072L26.8233 18.2079Z" fill="#FF0096"/>
</svg>
