<svg width="32" height="32" viewBox="0 0 32 32" fill="none" xmlns="http://www.w3.org/2000/svg">
<path d="M22.0519 12.2479C21.4321 12.022 20.7769 11.9087 20.1173 11.9132C17.9839 11.9132 16.4773 12.9879 16.4666 14.5305C16.4533 15.6639 17.5373 16.3025 18.3573 16.6812C19.1986 17.0705 19.4799 17.3159 19.4773 17.6639C19.4719 18.1932 18.8053 18.4332 18.1853 18.4332C17.3333 18.4332 16.8679 18.3145 16.1519 18.0172L15.8866 17.8932L15.5839 19.6692C16.1026 19.8852 17.0373 20.0705 18.0026 20.0865C20.2706 20.0865 21.7533 19.0185 21.7706 17.3772C21.7893 16.4719 21.2026 15.7879 19.9679 15.2225C19.2173 14.8559 18.7519 14.6105 18.7519 14.2385C18.7519 13.9092 19.1506 13.5572 19.9839 13.5572C20.5386 13.5438 21.0897 13.6479 21.6013 13.8625L21.8013 13.9519L22.1039 12.2359L22.0519 12.2479ZM27.5879 12.0572H25.9213C25.4026 12.0572 25.0119 12.1999 24.7853 12.7145L21.5799 19.9759H23.8479L24.3013 18.7852L27.0693 18.7879C27.1346 19.0665 27.3346 19.9759 27.3346 19.9759H29.3346L27.5879 12.0572ZM13.3986 11.9905H15.5599L14.2079 19.9132H12.0493L13.3986 11.9879V11.9905ZM7.91194 16.3572L8.13594 17.4572L10.2479 12.0572H12.5373L9.13594 19.9652H6.85194L4.98527 13.2692C4.95504 13.1588 4.88404 13.064 4.78661 13.0039C4.11381 12.6563 3.40093 12.3926 2.66394 12.2185L2.69327 12.0519H6.17194C6.64394 12.0705 7.02394 12.2185 7.15061 12.7225L7.91061 16.3612L7.91194 16.3572ZM24.9213 17.1652L25.7826 14.9492C25.7719 14.9732 25.9599 14.4919 26.0693 14.1945L26.2173 14.8785L26.7173 17.1639H24.9199L24.9213 17.1652Z" fill="white"/>
</svg>
