<svg width="25" height="25" viewBox="0 0 25 25" fill="none" xmlns="http://www.w3.org/2000/svg">
<path d="M16.1459 16.6663C17.5841 16.6663 18.75 15.5004 18.75 14.0622C18.75 12.6239 17.5841 11.458 16.1459 11.458C14.7076 11.458 13.5417 12.6239 13.5417 14.0622C13.5417 15.5004 14.7076 16.6663 16.1459 16.6663Z" fill="#1E1E1E"/>
<path d="M12.5 14.0622C12.5 13.2132 12.9125 12.4663 13.5417 11.9913C13.0936 11.6467 12.5444 11.4593 11.9792 11.458C11.2885 11.458 10.6261 11.7324 10.1377 12.2208C9.64937 12.7091 9.375 13.3715 9.375 14.0622C9.375 14.7528 9.64937 15.4152 10.1377 15.9036C10.6261 16.392 11.2885 16.6663 11.9792 16.6663C12.5444 16.665 13.0936 16.4776 13.5417 16.133C13.2191 15.8925 12.957 15.5801 12.7762 15.2207C12.5954 14.8612 12.5008 14.4645 12.5 14.0622Z" fill="#1E1E1E"/>
<path d="M20.8333 4.16699H4.16665C3.01769 4.16699 2.08331 5.10137 2.08331 6.25033V18.7503C2.08331 19.8993 3.01769 20.8337 4.16665 20.8337H20.8333C21.9823 20.8337 22.9166 19.8993 22.9166 18.7503V6.25033C22.9166 5.10137 21.9823 4.16699 20.8333 4.16699ZM4.16665 18.7503V6.25033H20.8333L20.8354 18.7503H4.16665Z" fill="#1E1E1E"/>
</svg>
