<svg width="25" height="25" viewBox="0 0 25 25" fill="none" xmlns="http://www.w3.org/2000/svg">
<path d="M20.8333 3.125H5.20825C3.48534 3.125 2.08325 4.52708 2.08325 6.25V18.75C2.08325 20.4729 3.48534 21.875 5.20825 21.875H20.8333C21.9822 21.875 22.9166 20.9406 22.9166 19.7917V5.20833C22.9166 4.05937 21.9822 3.125 20.8333 3.125ZM5.20825 19.7917C4.63325 19.7917 4.16659 19.324 4.16659 18.75V6.25C4.16659 5.67604 4.63325 5.20833 5.20825 5.20833H20.8333V8.33333H14.5833C13.4343 8.33333 12.4999 9.26771 12.4999 10.4167V14.5833C12.4999 15.7323 13.4343 16.6667 14.5833 16.6667H20.8343V19.7917H5.20825ZM20.8333 10.4167V14.5833H14.5833V10.4167H20.8333Z" fill="black"/>
</svg>
