<svg width="40" height="40" viewBox="0 0 40 40" fill="none" xmlns="http://www.w3.org/2000/svg">
<path d="M35 6.66699H5.00004C4.55801 6.66699 4.13409 6.84259 3.82153 7.15515C3.50897 7.46771 3.33337 7.89163 3.33337 8.33366V31.667C3.33337 32.109 3.50897 32.5329 3.82153 32.8455C4.13409 33.1581 4.55801 33.3337 5.00004 33.3337H35C35.4421 33.3337 35.866 33.1581 36.1786 32.8455C36.4911 32.5329 36.6667 32.109 36.6667 31.667V8.33366C36.6667 7.89163 36.4911 7.46771 36.1786 7.15515C35.866 6.84259 35.4421 6.66699 35 6.66699ZM33.3334 25.0003C32.0073 25.0003 30.7355 25.5271 29.7978 26.4648C28.8602 27.4025 28.3334 28.6742 28.3334 30.0003H11.6667C11.6667 28.6742 11.1399 27.4025 10.2022 26.4648C9.26456 25.5271 7.99279 25.0003 6.66671 25.0003V15.0003C7.99279 15.0003 9.26456 14.4735 10.2022 13.5359C11.1399 12.5982 11.6667 11.3264 11.6667 10.0003H28.3334C28.3334 11.3264 28.8602 12.5982 29.7978 13.5359C30.7355 14.4735 32.0073 15.0003 33.3334 15.0003V25.0003Z" fill="#1E1E1E"/>
<path d="M20 13.333C16.3234 13.333 13.3334 16.323 13.3334 19.9997C13.3334 23.6763 16.3234 26.6663 20 26.6663C23.6767 26.6663 26.6667 23.6763 26.6667 19.9997C26.6667 16.323 23.6767 13.333 20 13.333ZM20 23.333C18.1617 23.333 16.6667 21.838 16.6667 19.9997C16.6667 18.1613 18.1617 16.6663 20 16.6663C21.8384 16.6663 23.3334 18.1613 23.3334 19.9997C23.3334 21.838 21.8384 23.333 20 23.333Z" fill="#1E1E1E"/>
</svg>
