<svg width="25" height="25" viewBox="0 0 25 25" fill="none" xmlns="http://www.w3.org/2000/svg">
<path d="M3.125 13.5416H4.16667V20.8332C4.16667 21.9822 5.10104 22.9165 6.25 22.9165H18.75C19.899 22.9165 20.8333 21.9822 20.8333 20.8332V13.5416H21.875C22.081 13.5415 22.2823 13.4804 22.4536 13.3659C22.6249 13.2515 22.7583 13.0888 22.8372 12.8985C22.916 12.7082 22.9366 12.4988 22.8964 12.2967C22.8563 12.0947 22.7571 11.9091 22.6115 11.7634L13.2365 2.38843C13.1398 2.29161 13.025 2.2148 12.8986 2.16239C12.7723 2.10998 12.6368 2.08301 12.5 2.08301C12.3632 2.08301 12.2277 2.10998 12.1014 2.16239C11.975 2.2148 11.8602 2.29161 11.7635 2.38843L2.38854 11.7634C2.24291 11.9091 2.14374 12.0947 2.10356 12.2967C2.06339 12.4988 2.08401 12.7082 2.16284 12.8985C2.24166 13.0888 2.37514 13.2515 2.5464 13.3659C2.71766 13.4804 2.91901 13.5415 3.125 13.5416ZM12.5 4.5978L18.75 10.8478V15.6249L18.751 20.8332H6.25V10.8478L12.5 4.5978Z" fill="#1E1E1E"/>
<path d="M12.5 18.7497C16.3573 18.7497 17.6052 15.0633 17.6563 14.907L15.6771 14.2602C15.6688 14.2841 14.8635 16.6664 12.5 16.6664C10.1688 16.6664 9.35417 14.3529 9.32188 14.2539L7.34375 14.907C7.39479 15.0633 8.64271 18.7497 12.5 18.7497Z" fill="#1E1E1E"/>
</svg>
