<svg width="159" height="131" viewBox="0 0 159 131" fill="none" xmlns="http://www.w3.org/2000/svg">
<path fill-rule="evenodd" clip-rule="evenodd" d="M19.318 55.3163C23.2198 44.0522 27.5233 37.234 36.6239 29.8951C38.0267 28.7637 37.5369 28.7972 37.8092 26.8257C37.9752 25.6235 38.2752 24.5048 38.356 23.1937C38.8287 15.539 35.6869 12.3625 35.089 9.65954C40.1204 10.3896 43.7961 12.1345 47.4135 15.143C48.0973 15.7117 49.6673 17.4754 50.0103 18.3752C51.0269 18.0611 52.9167 16.6448 53.8618 16.0273L56.967 13.9669C57.2052 13.7649 57.1698 13.7867 57.3344 13.5998C55.8509 11.0119 52.7617 8.19229 50.398 6.5747C45.7141 3.36937 34.4226 -1.35699 29.3892 2.36512C27.0461 4.09768 24.7184 7.61674 26.437 11.9132C27.5897 14.7947 30.1466 17.1136 29.9032 22.3176C29.753 25.529 28.9611 25.0462 27.2882 26.6326C22.8567 30.835 18.283 36.7536 15.4144 42.2737C14.914 43.2366 13.8832 46.1613 13.0914 46.7051C7.73785 46.7051 4.81012 48.4922 2.76324 51.5591C0.42932 55.0565 1.08831 60.1372 1.08831 64.7491C1.08831 69.3737 0.422305 74.6735 2.74827 78.1789C5.89786 82.9257 9.21655 82.5497 13.0044 82.9279C14.6257 86.7604 15.9259 89.2061 17.7962 92.4477C18.5929 93.8285 19.7932 95.4728 20.7288 96.675C21.3559 97.4807 21.7246 97.947 22.3051 98.6796C27.1976 104.855 34.9529 108.16 34.94 117.909C34.933 123.259 34.9562 126.174 38.569 128.479C41.4851 130.34 47.5485 129.693 51.4226 129.693C54.668 129.693 62.6618 130.076 65.3199 129.517C67.5426 129.05 68.6324 128.034 69.7829 126.826C71.2183 125.317 71.1845 124.089 71.6774 121.824L79.4425 121.688C80.0464 123.369 79.5323 124.053 80.75 125.983C81.4807 127.142 82.3404 128.018 83.6138 128.715C86.3012 130.185 90.4696 129.692 93.8842 129.692L93.8587 121.062H88.1292L88.1157 111.947C86.3812 111.982 83.9554 112.542 82.1232 112.769C74.8101 113.672 69.9392 112.894 62.8346 112.264V121.063L43.8653 120.99C43.8653 114.723 43.4684 111.237 40.8387 106.344C38.0371 101.13 36.003 100.487 32.4857 97.02C25.2765 89.9137 22.5546 84.7067 19.505 74.6635C17.2401 74.442 11.6696 75.3043 10.3963 73.9086C9.38876 72.8041 9.83087 66.6796 9.83087 64.7491C9.83087 53.6303 8.24447 55.0353 19.318 55.3163Z" fill="url(#paint0_linear_171_130)" stroke="white"/>
<path fill-rule="evenodd" clip-rule="evenodd" d="M111.189 99.766L148.484 99.7655L149.317 99.8264L149.315 120.989L148.485 121.077L111.19 121.062L111.189 99.766ZM119.93 91.1364C119.93 86.6175 119.321 81.9618 121.513 78.5268C123.099 76.0409 126.221 73.6162 130.556 73.6997C134.719 73.78 137.909 76.2809 139.332 78.7852C141.347 82.3289 140.76 86.6292 140.76 91.1297L119.93 91.1364ZM102.643 129.507L158.241 129.409L158.223 91.1558L149.686 91.0428C149.686 82.1849 150.198 78.5216 145.596 72.3208C138.973 63.3971 124.076 61.8908 115.207 72.4648C110.931 77.5622 111.189 83.1898 111.19 91.1174L102.634 91.2253L102.643 129.507Z" fill="url(#paint1_linear_171_130)" stroke="white"/>
<path fill-rule="evenodd" clip-rule="evenodd" d="M126.068 45.1176C126.792 44.86 132.642 41.1688 133.205 40.6266C132.758 39.5006 128.693 33.6684 127.861 32.8555C126.828 33.3443 125.258 34.4566 124.212 35.2034C123.078 36.0133 121.819 36.818 120.74 37.4947L126.068 45.1176Z" fill="url(#paint2_linear_171_130)" stroke="white"/>
<path fill-rule="evenodd" clip-rule="evenodd" d="M116.643 33.4285C117.815 31.8839 121.504 27.9946 122.105 26.6812C120.92 26.0285 119.584 24.7531 118.319 23.7775C117.457 23.1121 115.541 21.2708 114.636 20.9688L109.452 27.4484C110.707 28.5632 112.051 29.3368 113.178 30.4621L116.643 33.4285Z" fill="url(#paint3_linear_171_130)" stroke="white"/>
<path fill-rule="evenodd" clip-rule="evenodd" d="M90.8586 10.5111C89.0517 10.2577 82.7694 8.84304 81.5887 9.03789L80.3785 17.3231L89.4513 18.8928L90.8586 10.5111Z" fill="url(#paint4_linear_171_130)" stroke="white"/>
<path fill-rule="evenodd" clip-rule="evenodd" d="M107.42 16.404L98.9804 12.8008C98.2772 13.856 96.1437 19.0814 95.6523 20.5236C96.0735 20.9092 103.023 23.9867 103.958 24.2508L107.42 16.404Z" fill="url(#paint5_linear_171_130)" stroke="white"/>
<path fill-rule="evenodd" clip-rule="evenodd" d="M64.2769 9.23816C64.011 10.6333 64.7523 16.0224 64.8673 17.884L73.8014 17.1216L73.2653 8.51953L64.2769 9.23816Z" fill="url(#paint6_linear_171_130)" stroke="white"/>
<path fill-rule="evenodd" clip-rule="evenodd" d="M128.389 50.5348C128.42 50.8039 130.643 58.8316 130.792 59.1655L139.11 57.1682L136.583 48.3857L128.389 50.5348Z" fill="url(#paint7_linear_171_130)" stroke="white"/>
<defs>
<linearGradient id="paint0_linear_171_130" x1="11.3205" y1="55.3137" x2="82.7707" y2="55.2132" gradientUnits="userSpaceOnUse">
<stop offset="0.0364583" stop-color="#FF6C01"/>
<stop offset="1" stop-color="#F72585"/>
</linearGradient>
<linearGradient id="paint1_linear_171_130" x1="108.813" y1="92.2392" x2="151.588" y2="92.1672" gradientUnits="userSpaceOnUse">
<stop offset="0.0364583" stop-color="#FF6C01"/>
<stop offset="1" stop-color="#F72585"/>
</linearGradient>
<linearGradient id="paint2_linear_171_130" x1="122.125" y1="38.0255" x2="131.713" y2="38.0064" gradientUnits="userSpaceOnUse">
<stop offset="0.0364583" stop-color="#FF6C01"/>
<stop offset="1" stop-color="#F72585"/>
</linearGradient>
<linearGradient id="paint3_linear_171_130" x1="110.858" y1="26.222" x2="120.591" y2="26.2027" gradientUnits="userSpaceOnUse">
<stop offset="0.0364583" stop-color="#FF6C01"/>
<stop offset="1" stop-color="#F72585"/>
</linearGradient>
<linearGradient id="paint4_linear_171_130" x1="81.543" y1="13.1823" x2="89.6047" y2="13.1656" gradientUnits="userSpaceOnUse">
<stop offset="0.0364583" stop-color="#FF6C01"/>
<stop offset="1" stop-color="#F72585"/>
</linearGradient>
<linearGradient id="paint5_linear_171_130" x1="96.9598" y1="17.6284" x2="106.012" y2="17.6102" gradientUnits="userSpaceOnUse">
<stop offset="0.0364583" stop-color="#FF6C01"/>
<stop offset="1" stop-color="#F72585"/>
</linearGradient>
<linearGradient id="paint6_linear_171_130" x1="65.2844" y1="12.4678" x2="72.6549" y2="12.4531" gradientUnits="userSpaceOnUse">
<stop offset="0.0364583" stop-color="#FF6C01"/>
<stop offset="1" stop-color="#F72585"/>
</linearGradient>
<linearGradient id="paint7_linear_171_130" x1="129.58" y1="52.9307" x2="137.827" y2="52.9147" gradientUnits="userSpaceOnUse">
<stop offset="0.0364583" stop-color="#FF6C01"/>
<stop offset="1" stop-color="#F72585"/>
</linearGradient>
</defs>
</svg>
